PathFileType	4	(X/Y/Z)	S01_0003_Gait_markers.trc
DataRate	CameraRate	NumFrames	NumMarkers	Units	OrigDataRate	OrigDataStartFrame	OrigNumFrames
250.000000	250.000000	4	54	mm	250.000000	157	314
Frame#	Time	HEAD_ANT			R_HEAD			L_HEAD			C7			R_BACK			L_BACK			STERNUM			R_ACROMION			R_HUM_PROX			R_HUM_ANT			R_HUM_POST			R_ELBOW_LAT			R_ELBOW_MED			R_FOREARM			R_WIRST_LAT			R_WRITS_MED			R_HAND			L_ACROMION			L_HUM_PROX			L_HUM_ANT			L_HUM_POST			L_ELBOW_LAT			L_ELBOW_MED			L_FOREARM			L_WRIST_LAT			L_WIRST_MED			L_HAND			R_ILIAC			SACRUM			L_ILIAC			R_GTROCH			R_THIGH__1			R_THIGH_2			R_THIGH_3			R_THIGH_4			R_SHANK_1			R_SHANK_2			R_SHANK_3			R_SHANK_4			R_HEEL			R_FOOT_LAT			R_FOOT_MED			L_GTROCH			L_THIGH_1			L_THIGH_2			L_THIGH_3			L_THIGH_4			L_SHANK_1			L_SHANK_2			L_SHANK_3			L_SHANK_4			L_HEEL			L_FOOT_LAT			L_FOOT_MED			
		X1	Y1	Z1	X2	Y2	Z2	X3	Y3	Z3	X4	Y4	Z4	X5	Y5	Z5	X6	Y6	Z6	X7	Y7	Z7	X8	Y8	Z8	X9	Y9	Z9	X10	Y10	Z10	X11	Y11	Z11	X12	Y12	Z12	X13	Y13	Z13	X14	Y14	Z14	X15	Y15	Z15	X16	Y16	Z16	X17	Y17	Z17	X18	Y18	Z18	X19	Y19	Z19	X20	Y20	Z20	X21	Y21	Z21	X22	Y22	Z22	X23	Y23	Z23	X24	Y24	Z24	X25	Y25	Z25	X26	Y26	Z26	X27	Y27	Z27	X28	Y28	Z28	X29	Y29	Z29	X30	Y30	Z30	X31	Y31	Z31	X32	Y32	Z32	X33	Y33	Z33	X34	Y34	Z34	X35	Y35	Z35	X36	Y36	Z36	X37	Y37	Z37	X38	Y38	Z38	X39	Y39	Z39	X40	Y40	Z40	X41	Y41	Z41	X42	Y42	Z42	X43	Y43	Z43	X44	Y44	Z44	X45	Y45	Z45	X46	Y46	Z46	X47	Y47	Z47	X48	Y48	Z48	X49	Y49	Z49	X50	Y50	Z50	X51	Y51	Z51	X52	Y52	Z52	X53	Y53	Z53	X54	Y54	Z54	

158	0.628	1084.673583984375	1712.408325195312	-325.2949523925777	1025.705932617188	1664.03271484375	-246.5060577392574	1024.890625	1663.071533203125	-393.9523010253903	884.4347534179688	1494.990844726562	-313.8629455566403	815.3892211914062	1300.901245117188	-237.1203613281247	809.2086181640625	1298.503051757812	-375.3685913085935	1061.793579101562	1331.396850585938	-320.4680480957028	976.6224975585938	1445.1552734375	-145.3795013427731	970.1124877929688	1285.903564453125	-50.48927688598604	1041.372802734375	1208.0869140625	-60.92614364623996	924.8402709960938	1196.465087890625	-25.68070411682102	985.7894287109375	1095.588134765625	-29.03318405151343	947.3335571289062	1085.743286132812	-103.0727157592771	1120.390258789062	936.9483642578125	-52.34245681762675	1163.746215820312	880.9036254882812	-101.6400070190428	1111.21923828125	843.8076171875	-50.30619430541974	1197.433715820312	797.0869750976562	-50.70180892944318	955.336669921875	1446.269775390625	-487.0528869628903	912.6270751953125	1278.289916992188	-575.2513427734373	967.45166015625	1192.804443359375	-580.336242675781	844.323486328125	1205.541748046875	-591.3588256835935	890.0223999023438	1096.9296875	-601.8280639648435	846.1600341796875	1097.1806640625	-538.9139404296873	974.0744018554688	909.6013183593751	-603.120666503906	1009.604919433594	845.8580932617189	-558.3093261718748	948.5714111328125	829.1983032226564	-607.846740722656	1019.301696777344	766.9823608398439	-611.1718749999999	956.8716430664062	1043.890258789062	-135.9138946533201	831.5081176757812	1015.979370117188	-309.0346984863279	951.1336669921875	1038.08447265625	-481.4246520996091	894.4406127929688	910.2804565429688	-125.1150741577146	856.2014770507812	643.2271118164062	-140.3112335205077	914.8984985351562	642.908935546875	-135.0983886718749	890.57177734375	542.831787109375	-165.7783813476561	830.1355590820312	566.4712524414062	-159.5042724609374	704.531494140625	381.4070434570313	-147.1147460937499	736.1328735351562	333.3626403808594	-163.970474243164	682.468994140625	266.8169860839844	-181.1550903320312	635.3834228515625	307.7196350097657	-167.2115020751953	479.8680419921875	171.2471160888672	-238.2244415283203	581.635986328125	30.37591934204105	-178.8426818847656	629.5414428710938	28.10719299316413	-280.3795776367188	936.694091796875	926.2949829101564	-489.6215209960935	1108.734008789062	676.7688598632814	-467.2122802734373	1051.565795898438	676.7884521484376	-487.1434631347655	1071.248657226562	576.1262817382814	-451.6369018554686	1128.877807617188	600.7363281250001	-440.2157592773436	1171.294799804688	333.0321044921876	-436.5599670410156	1120.683837890625	299.0472106933595	-437.6604309082031	1137.83447265625	215.0211334228516	-421.6618652343749	1198.256225585938	235.7594299316407	-415.0484924316406	1136.482788085938	36.7721252441407	-348.4222717285156	1311.473022460938	23.78602027893076	-421.3473815917969	1349.71337890625	43.21343994140632	-325.8727111816406	
159	0.632	1090.404418945312	1712.808959960938	-326.1876220703121	1031.426147460938	1664.452392578125	-247.4781646728512	1030.697875976562	1663.591674804688	-394.9267883300778	890.5086669921875	1495.376098632812	-314.8434143066403	821.5228881835938	1300.881103515625	-238.0359954833982	815.2745971679688	1298.695190429688	-376.1330566406247	1067.941772460938	1331.968139648438	-321.0739135742185	982.5501708984375	1445.629272460938	-146.0781707763669	975.3565063476562	1286.129272460938	-51.30558013915987	1046.861938476562	1208.046020507812	-61.12469863891575	929.9774169921875	1196.67236328125	-27.04306030273411	990.9596557617188	1095.648681640625	-30.12787818908667	952.7283325195312	1086.045288085938	-104.3672714233396	1125.174682617188	936.6477661132812	-52.86467361450175	1168.537963867188	880.5325317382812	-101.9069824218748	1115.681030273438	843.5697631835938	-50.9126548767088	1201.691772460938	796.6707153320312	-50.76951599121076	961.458251953125	1446.31982421875	-487.6755065917965	918.69580078125	1278.113037109375	-575.950988769531	973.7620849609375	1192.654541015625	-579.8269042968748	850.4863891601562	1205.2626953125	-591.7137451171873	896.5525512695312	1096.656005859375	-601.9933471679685	852.5030517578125	1096.968383789063	-539.245910644531	979.83935546875	909.4561157226564	-603.459777832031	1015.487121582031	845.4627685546876	-558.522766113281	954.35546875	828.9218139648439	-607.9744873046873	1025.174682617188	766.6146240234376	-611.4400634765624	964.3651733398438	1043.653076171875	-136.562316894531	837.8991088867188	1016.408325195313	-308.9841003417966	957.4698486328125	1038.471313476562	-482.1078186035154	901.4407348632812	909.6727294921875	-125.2860717773436	864.3862915039062	642.2595825195312	-140.9545440673827	922.9061889648438	642.05029296875	-135.5897064208983	899.2369995117188	541.974365234375	-166.0931549072264	838.7376098632812	565.4486694335938	-159.9040374755858	711.7120361328125	382.2280578613282	-146.9589233398437	742.8374633789062	333.8472290039063	-163.2077178955077	688.524169921875	267.7911987304688	-180.4710235595703	642.0521850585938	309.7660522460938	-166.3006591796874	484.5035705566406	175.6106719970704	-236.698013305664	582.8416748046875	31.18993186950688	-178.8184509277344	629.6511840820312	28.15058517456061	-280.3656311035156	943.3145751953125	927.5988769531251	-490.128479003906	1115.774169921875	678.1047973632814	-467.159210205078	1058.442016601562	678.2039184570314	-487.1901855468748	1078.166381835938	577.0541381835939	-452.1916503906249	1135.955078125	602.1641845703126	-440.4219970703124	1176.505615234375	332.9618225097657	-436.5692749023437	1125.3212890625	299.538055419922	-438.5905151367187	1141.261352539062	214.9810180664063	-422.3631896972656	1201.826782226562	235.4160461425782	-415.1215209960937	1137.056884765625	37.19054031372078	-348.8171997070312	1312.183959960938	22.99944305419931	-422.4358520507812	1350.1806640625	40.14103317260749	-324.77978515625	
160	0.636	1096.067138671875	1713.209350585938	-327.0635986328121	1037.042724609375	1664.968383789062	-248.5722045898434	1036.611206054688	1663.9423828125	-395.8861083984372	896.572509765625	1495.96142578125	-315.6129455566403	827.4903564453125	1300.955078125	-238.6704559326169	821.2579956054688	1298.694702148438	-376.8691101074216	1073.952270507812	1332.461791992188	-322.0958862304685	988.5518798828125	1446.068359375	-146.7809600830075	980.753662109375	1286.39599609375	-52.17799758911104	1052.093872070312	1208.2119140625	-61.61482620239231	935.0425415039062	1196.96142578125	-28.33217048644993	996.0942993164062	1095.85986328125	-31.08852386474585	958.2747192382812	1086.393310546875	-105.498954772949	1129.792846679688	936.3930053710938	-53.45172500610331	1173.265625	880.2141723632812	-102.2417602539061	1120.012329101562	843.33447265625	-51.35981750488263	1205.898803710938	796.1731567382812	-51.09307098388654	967.6253662109375	1446.421997070312	-488.7266235351559	924.956298828125	1278.118041992188	-576.5081787109373	980.1644897460938	1192.68603515625	-581.3273315429685	856.7508544921875	1205.195556640625	-592.1386718749998	906.1031494140625	1095.448852539063	-601.154602050781	858.9267578125	1096.880004882813	-539.3416748046873	986.0154418945312	909.1964721679689	-603.710510253906	1021.53662109375	845.2751464843751	-559.1322631835935	960.4376220703125	828.8332519531251	-608.4803466796873	1031.127685546875	766.4721069335939	-611.7258300781249	970.4718017578125	1042.79296875	-136.8394622802732	844.69140625	1016.658325195313	-308.5345764160154	963.4345092773438	1039.211059570312	-482.6095886230466	908.5450439453125	908.7391357421875	-125.6853942871092	872.6315307617188	641.489990234375	-141.2003784179686	931.2295532226562	641.5734252929688	-135.9862518310545	907.9033203125	541.2225952148438	-166.1874847412108	847.3444213867188	564.5250244140625	-160.1247406005858	719.0433959960938	383.0531616210938	-146.9110870361327	749.8416748046875	334.0944519042969	-162.8201904296874	694.74267578125	268.7895812988282	-179.7802581787109	648.7647094726562	311.3088989257813	-165.7778930664062	490.2872314453125	179.5643310546876	-236.135269165039	584.0240478515625	31.90181732177738	-178.8263549804688	629.8375854492188	28.2119045257569	-280.3583068847656	949.54052734375	929.0291137695314	-490.6036682128904	1122.6552734375	679.2489624023439	-466.9374694824217	1065.349243164062	679.2320556640626	-487.1918640136717	1085.291870117188	578.3290405273439	-452.8942565917968	1142.90771484375	603.0882568359376	-440.4693298339843	1181.17919921875	332.732635498047	-437.0702514648437	1129.682861328125	299.9685363769532	-439.6568603515624	1144.538330078125	214.9744567871095	-422.6595153808593	1205.302978515625	234.817367553711	-414.7095336914062	1137.62744140625	37.61977005004891	-348.7703552246094	1312.3818359375	22.50808334350595	-422.9964294433594	1350.514038085938	37.30760574340827	-323.4182434082031	
161	0.64	1101.74853515625	1713.61572265625	-328.2143554687496	1042.751220703125	1665.523803710938	-249.4543304443356	1042.275634765625	1664.450317382812	-396.9889221191402	902.5728149414062	1496.3564453125	-316.4974670410153	833.4699096679688	1301.129516601562	-239.3949127197263	827.2572021484375	1298.903198242188	-377.7920227050778	1079.915405273438	1333.023193359375	-322.9754638671872	994.5477905273438	1446.619018554688	-147.5060729980466	986.2504272460938	1286.686767578125	-52.94718170165987	1057.198852539062	1208.610473632812	-62.43018722534153	940.0933227539062	1197.367431640625	-29.44504737853977	1001.100830078125	1096.27001953125	-32.08218383789038	963.70166015625	1086.965698242188	-106.8528060913084	1134.469360351562	936.2308959960938	-53.85269546508768	1177.834106445312	879.9251708984375	-102.6042861938475	1124.2412109375	843.2177734375	-51.90885162353497	1209.9658203125	795.7592163085938	-51.24473190307599	973.3125610351562	1446.5751953125	-489.4851684570309	931.2474975585938	1278.217529296875	-577.082336425781	986.44677734375	1192.651611328125	-580.7902221679685	863.0245361328125	1205.107421875	-592.7246093749998	912.3638916015625	1095.637573242188	-601.5957031249998	865.2617797851562	1096.911010742188	-539.6573486328123	992.2691040039062	908.9943237304689	-604.0983886718748	1027.66552734375	844.9447631835939	-559.1489257812498	966.5068359375	828.8598632812501	-608.7936401367185	1036.9814453125	766.2827148437501	-612.2289428710936	977.5315551757812	1042.679809570312	-137.3885955810545	851.1351928710938	1016.976928710938	-308.5290222167966	969.1331176757812	1040.043701171875	-483.4616394042966	915.6327514648438	908.2183837890625	-125.9428863525389	880.90869140625	640.8002319335938	-141.6905517578124	939.4147338867188	641.23095703125	-136.5553894042967	916.6495361328125	540.5093383789062	-166.3913116455077	856.000732421875	563.51904296875	-160.3370819091796	726.6928100585938	384.1074523925782	-146.5728912353515	756.95068359375	334.5582885742188	-163.175308227539	701.1548461914062	269.8555603027344	-178.768325805664	655.412353515625	312.7813720703126	-164.8886718749999	496.536376953125	183.3988189697266	-235.7295989990234	585.3530883789062	32.78793716430668	-178.8501892089844	630.1351928710938	28.3266506195069	-280.3217163085938	955.6935424804688	930.5435180664064	-491.0281982421873	1129.749267578125	680.5255737304689	-466.565704345703	1072.117309570312	680.4484252929689	-487.426055908203	1092.409912109375	579.2332153320314	-453.5359802246093	1149.848999023438	604.4209594726564	-440.5160217285155	1185.71923828125	332.4002380371095	-436.9410400390624	1134.11181640625	300.0702514648439	-440.3447875976562	1147.615234375	215.152328491211	-423.4588317871093	1208.383422851562	234.3439025878907	-414.4682617187499	1138.125	37.9600143432618	-348.57275390625	1312.659912109375	22.30042266845712	-423.1566162109375	1351.109375	35.87119293212898	-322.542236328125	
